<svg width="40" height="40" viewBox="0 0 40 40" fill="none" xmlns="http://www.w3.org/2000/svg">
<g opacity="0.2" clip-path="url(#clip0_208_7640)">
<path d="M20.5938 0H19.4061H0V19.4061V20.5939V39.9999H19.4062H20.5939H40V20.5938V19.406V0H20.5938ZM19.4057 38.8118H1.18813V20.5941H19.4058V38.8118H19.4057ZM19.4057 19.4057H1.18813V1.18805H19.4058V19.4057H19.4057ZM38.8119 19.4057H25.5845V19.406V20.5938V20.5941H38.8119V38.8118H20.5943V20.5941H24.0002V20.5938V19.406V19.4057H20.5943V1.18805H38.812V19.4057H38.8119Z" fill="black"/>
<path d="M12.5557 8.03846V4.60205H8.03854V8.03846H4.60205V12.5556H8.03846V15.9921H12.5556V12.5556H15.9921V8.03846H12.5557ZM14.8039 11.3675H11.3674V14.8039H9.2265V11.3675H5.79018V9.22658H9.22666V5.79018H11.3676V9.22658H14.8039V11.3675V11.3675Z" fill="black"/>
<path d="M32.8972 10.2971L35.3271 7.86716L32.1331 4.6731L29.7032 7.10302L27.2732 4.6731L24.0791 7.86716L26.509 10.2971L24.0791 12.727L27.2732 15.9211L29.7032 13.4912L32.1331 15.9211L35.3271 12.727L32.8972 10.2971ZM29.7032 11.811L27.2732 14.2409L25.7593 12.727L28.1893 10.2971L25.7593 7.86716L27.2732 6.35333L29.7032 8.78325L32.1331 6.35333L33.6469 7.86716L31.217 10.2971L33.6469 12.727L32.1331 14.2409L29.7032 11.811Z" fill="black"/>
<path d="M15.9921 24.5115H4.60205V29.0287H15.9921L15.9921 24.5115ZM14.804 27.8405H5.79018V25.6995H14.804V27.8405Z" fill="black"/>
<path d="M24.0083 27.4443V31.9615H35.3983V27.4443H24.0083ZM34.2102 30.7734H25.1964V28.6325H34.2102V30.7734V30.7734Z" fill="black"/>
<path d="M15.9921 30.3774H4.60205V34.8946H15.9921L15.9921 30.3774ZM14.804 33.7066H5.79018V31.5656H14.804V33.7066Z" fill="black"/>
</g>
<defs>
<clipPath id="clip0_208_7640">
<rect width="40" height="40" fill="white"/>
</clipPath>
</defs>
</svg>
