<svg width="20" height="20" viewBox="0 0 20 20" fill="none" xmlns="http://www.w3.org/2000/svg">
<g clip-path="url(#clip0_1629_443)">
<path d="M18.076 0.0537109H12.7978C11.7369 0.0537109 10.8739 0.916875 10.8739 1.97773V7.25592C10.8739 8.31677 11.7369 9.17984 12.7978 9.17984H18.076C19.1368 9.17984 19.9999 8.31677 19.9999 7.25592V1.97773C20 0.916875 19.1369 0.0537109 18.076 0.0537109ZM17.5269 5.3783H13.3469C12.9263 5.3783 12.5854 5.03744 12.5854 4.61677C12.5854 4.19611 12.9263 3.85525 13.3469 3.85525H17.5269C17.9474 3.85525 18.2884 4.19611 18.2884 4.61677C18.2884 5.03744 17.9474 5.3783 17.5269 5.3783ZM7.2022 0.0537109H1.92392C0.863062 0.0537109 0 0.916875 0 1.97773V7.25592C0 8.31677 0.863062 9.17984 1.92392 9.17984H7.2021C8.26296 9.17984 9.12602 8.31677 9.12602 7.25592V1.97773C9.12612 0.916875 8.26306 0.0537109 7.2022 0.0537109ZM6.6796 5.3783H5.35109V6.7067C5.35109 7.12737 5.01013 7.46823 4.58956 7.46823C4.169 7.46823 3.82804 7.12737 3.82804 6.7067V5.3783H2.49963C2.07907 5.3783 1.73811 5.03744 1.73811 4.61677C1.73811 4.19611 2.07907 3.85525 2.49963 3.85525H3.82804V2.52684C3.82804 2.10617 4.169 1.76532 4.58956 1.76532C5.01013 1.76532 5.35109 2.10617 5.35109 2.52684V3.85525H6.67949C7.10006 3.85525 7.44102 4.19611 7.44102 4.61677C7.44102 5.03744 7.10016 5.3783 6.6796 5.3783ZM7.2022 10.8198H1.92392C0.863062 10.8198 0 11.6828 0 12.7437V18.0219C0 19.0827 0.863062 19.9458 1.92392 19.9458H7.2021C8.26296 19.9458 9.12602 19.0827 9.12602 18.0219V12.7437C9.12612 11.6828 8.26306 10.8198 7.2022 10.8198ZM6.60588 16.322C6.90328 16.6195 6.90328 17.1016 6.60588 17.399C6.45723 17.5477 6.26228 17.622 6.06743 17.622C5.87258 17.622 5.67763 17.5477 5.52898 17.399L4.58966 16.4597L3.65035 17.399C3.5017 17.5477 3.30675 17.622 3.1119 17.622C2.91705 17.622 2.7221 17.5477 2.57345 17.399C2.27605 17.1015 2.27605 16.6194 2.57345 16.322L3.51277 15.3827L2.57345 14.4434C2.27605 14.1459 2.27605 13.6638 2.57345 13.3664C2.87085 13.0691 3.35305 13.0691 3.65035 13.3664L4.58966 14.3057L5.52898 13.3664C5.82638 13.0691 6.30858 13.0691 6.60588 13.3664C6.90328 13.6639 6.90328 14.146 6.60588 14.4434L5.66656 15.3827L6.60588 16.322ZM18.076 10.8198H12.7978C11.7369 10.8198 10.8739 11.6828 10.8739 12.7437V18.0219C10.8739 19.0827 11.7369 19.9458 12.7978 19.9458H18.076C19.1368 19.9458 19.9999 19.0827 19.9999 18.0219V12.7437C20 11.6828 19.1369 10.8198 18.076 10.8198ZM15.4369 12.362H15.5554C15.976 12.362 16.317 12.7029 16.317 13.1235C16.317 13.5442 15.976 13.885 15.5554 13.885H15.4369C15.0164 13.885 14.6754 13.5442 14.6754 13.1235C14.6754 12.7029 15.0164 12.362 15.4369 12.362ZM15.5553 18.4034H15.4368C15.0163 18.4034 14.6753 18.0626 14.6753 17.6419C14.6753 17.2212 15.0163 16.8804 15.4368 16.8804H15.5553C15.9759 16.8804 16.3169 17.2212 16.3169 17.6419C16.3169 18.0626 15.9759 18.4034 15.5553 18.4034ZM17.5269 16.1442H13.3469C12.9263 16.1442 12.5854 15.8034 12.5854 15.3827C12.5854 14.962 12.9263 14.6212 13.3469 14.6212H17.5269C17.9474 14.6212 18.2884 14.962 18.2884 15.3827C18.2884 15.8034 17.9474 16.1442 17.5269 16.1442Z" fill="white"/>
</g>
<defs>
<clipPath id="clip0_1629_443">
<rect width="20" height="20" fill="white"/>
</clipPath>
</defs>
</svg>
