<svg width="28" height="28" viewBox="0 0 28 28" fill="none" xmlns="http://www.w3.org/2000/svg">
<g clip-path="url(#clip0_1637_444)">
<path d="M25.3064 0.0751953H17.9169C16.4317 0.0751953 15.2235 1.28363 15.2235 2.76882V10.1583C15.2235 11.6435 16.4317 12.8518 17.9169 12.8518H25.3064C26.7915 12.8518 27.9999 11.6435 27.9999 10.1583V2.76882C28 1.28363 26.7917 0.0751953 25.3064 0.0751953ZM24.5377 7.52962H18.6857C18.0968 7.52962 17.6196 7.05242 17.6196 6.46348C17.6196 5.87455 18.0968 5.39735 18.6857 5.39735H24.5377C25.1264 5.39735 25.6038 5.87455 25.6038 6.46348C25.6038 7.05242 25.1264 7.52962 24.5377 7.52962ZM10.0831 0.0751953H2.69349C1.20829 0.0751953 0 1.28363 0 2.76882V10.1583C0 11.6435 1.20829 12.8518 2.69349 12.8518H10.0829C11.5681 12.8518 12.7764 11.6435 12.7764 10.1583V2.76882C12.7766 1.28363 11.5683 0.0751953 10.0831 0.0751953ZM9.35144 7.52962H7.49153V9.38938C7.49153 9.97832 7.01418 10.4555 6.42538 10.4555C5.8366 10.4555 5.35926 9.97832 5.35926 9.38938V7.52962H3.49948C2.9107 7.52962 2.43335 7.05242 2.43335 6.46348C2.43335 5.87455 2.9107 5.39735 3.49948 5.39735H5.35926V3.53758C5.35926 2.94864 5.8366 2.47145 6.42538 2.47145C7.01418 2.47145 7.49153 2.94864 7.49153 3.53758V5.39735H9.35129C9.94008 5.39735 10.4174 5.87455 10.4174 6.46348C10.4174 7.05242 9.94022 7.52962 9.35144 7.52962ZM10.0831 15.1477H2.69349C1.20829 15.1477 0 16.3559 0 17.8412V25.2307C0 26.7158 1.20829 27.9241 2.69349 27.9241H10.0829C11.5681 27.9241 12.7764 26.7158 12.7764 25.2307V17.8412C12.7766 16.3559 11.5683 15.1477 10.0831 15.1477ZM9.24823 22.8508C9.66459 23.2673 9.66459 23.9422 9.24823 24.3586C9.04012 24.5668 8.76719 24.6708 8.4944 24.6708C8.22161 24.6708 7.94868 24.5668 7.74057 24.3586L6.42552 23.0436L5.11049 24.3586C4.90238 24.5668 4.62945 24.6708 4.35666 24.6708C4.08387 24.6708 3.81094 24.5668 3.60283 24.3586C3.18647 23.9421 3.18647 23.2672 3.60283 22.8508L4.91788 21.5358L3.60283 20.2208C3.18647 19.8043 3.18647 19.1293 3.60283 18.713C4.01919 18.2967 4.69427 18.2967 5.11049 18.713L6.42552 20.028L7.74057 18.713C8.15693 18.2967 8.83201 18.2967 9.24823 18.713C9.66459 19.1295 9.66459 19.8044 9.24823 20.2208L7.93318 21.5358L9.24823 22.8508ZM25.3064 15.1477H17.9169C16.4317 15.1477 15.2235 16.3559 15.2235 17.8412V25.2307C15.2235 26.7158 16.4317 27.9241 17.9169 27.9241H25.3064C26.7915 27.9241 27.9999 26.7158 27.9999 25.2307V17.8412C28 16.3559 26.7917 15.1477 25.3064 15.1477ZM21.6117 17.3068H21.7776C22.3664 17.3068 22.8438 17.7841 22.8438 18.3729C22.8438 18.9619 22.3664 19.439 21.7776 19.439H21.6117C21.023 19.439 20.5456 18.9619 20.5456 18.3729C20.5456 17.7841 21.023 17.3068 21.6117 17.3068ZM21.7774 25.7648H21.6115C21.0228 25.7648 20.5454 25.2876 20.5454 24.6987C20.5454 24.1097 21.0228 23.6326 21.6115 23.6326H21.7774C22.3663 23.6326 22.8437 24.1097 22.8437 24.6987C22.8437 25.2876 22.3663 25.7648 21.7774 25.7648ZM24.5377 22.6019H18.6857C18.0968 22.6019 17.6196 22.1248 17.6196 21.5358C17.6196 20.9468 18.0968 20.4697 18.6857 20.4697H24.5377C25.1264 20.4697 25.6038 20.9468 25.6038 21.5358C25.6038 22.1248 25.1264 22.6019 24.5377 22.6019Z" fill="white"/>
</g>
<defs>
<clipPath id="clip0_1637_444">
<rect width="28" height="28" fill="white"/>
</clipPath>
</defs>
</svg>
